PathFileType	4	(X/Y/Z)	C:\Users\WrightLab\Desktop\Jo\P1.2Trial7.trc
DataRate	CameraRate	NumFrames	NumMarkers	Units	OrigDataRate	OrigDataStartFrame	OrigNumFrames
100.00	100.00	       18	19	mm	100.00	135	       539
Frame#	Time	Headset_Front			Headset_Back			Headset_Left			Headset_Right			Left_Shoulder			Right_Shoulder			Sternum			C7			Left Elbow			Right Elbow			Left Wrist			Right Wrist			Left ASIS			Right ASIS			S2			Left Knee			Right Knee			Left Ankle			Right Ankle			
		X1	Y1	Z1	X2	Y2	Z2	X3	Y3	Z3	X4	Y4	Z4	X5	Y5	Z5	X6	Y6	Z6	X7	Y7	Z7	X8	Y8	Z8	X9	Y9	Z9	X10	Y10	Z10	X11	Y11	Z11	X12	Y12	Z12	X13	Y13	Z13	X14	Y14	Z14	X15	Y15	Z15	X16	Y16	Z16	X17	Y17	Z17	X18	Y18	Z18	X19	Y19	Z19	

135	1.340	-666.38049	1330.68921	-846.31396	-639.40118	1469.45068	-1117.42078	-539.59003	1402.03992	-999.39728	-762.79474	1373.25012	-954.81702	-423.79343	1208.41431	-1044.95850	-842.62921	1185.12878	-1091.15186	-647.88794	1127.83276	-955.94281				-340.57336	926.13403	-1098.48474	-914.73401	936.25739	-1133.80505	-308.95197	716.88336	-972.90808	-968.64526	690.55609	-1023.31750	-519.80505	823.64819	-952.93750	-771.59698	803.31317	-1050.35706	-537.73828	882.02643	-1258.78589	-591.55151	442.55792	-873.25305	-751.17975	366.12643	-1160.45386	-602.12067	136.00351	-781.85956				
136	1.350	-666.80090	1329.50293	-836.66418	-641.32550	1467.60474	-1108.68091	-540.75305	1400.37744	-990.31384	-764.03162	1372.23828	-945.21478	-425.58585	1206.34546	-1035.13770	-844.87079	1184.47546	-1082.39526	-650.55072	1126.81519	-945.59363				-342.19162	924.46582	-1090.59265	-916.19751	934.11359	-1124.50049	-310.89786	712.53381	-968.56726	-968.58380	688.33899	-1016.06934	-524.40576	821.54108	-942.46844	-775.77319	802.18988	-1039.06860	-540.72406	879.14081	-1247.80444	-597.09540	442.41803	-861.50775	-754.81549	365.92374	-1150.97412	-609.42419	137.90932	-768.33228				
137	1.360	-667.66949	1328.67188	-827.47705	-643.00897	1466.00781	-1100.45471	-541.93066	1399.63477	-982.93390	-765.30054	1371.63049	-935.64948	-427.55588	1204.05115	-1025.53992	-847.07251	1181.85217	-1072.92334	-652.88806	1126.06079	-935.70386	-628.08746	1256.09546	-1160.99121	-344.71542	921.73657	-1084.05042	-917.05707	932.95782	-1116.75720	-310.87778	711.48047	-958.01477	-968.99170	686.32709	-1007.84296	-527.90515	818.97986	-932.91730	-779.40820	801.38501	-1027.96631	-543.70557	877.34564	-1238.47046	-602.10034	440.92874	-850.49701	-758.28107	364.58289	-1148.21802	-614.15887	139.44519	-757.89594				
138	1.370	-668.26898	1328.89648	-817.85382	-644.54803	1464.41809	-1092.02661	-543.19342	1398.74658	-975.13806	-766.20538	1370.79700	-926.17999	-429.26401	1202.25720	-1017.29291	-848.57910	1180.95984	-1062.97229	-655.03192	1125.13000	-925.52783	-629.73145	1255.18872	-1151.90845	-347.09976	920.06171	-1074.69690	-918.07129	931.37274	-1107.96143	-311.75308	708.95947	-951.69653	-969.22943	683.83368	-999.87866	-530.34845	818.37836	-921.94220	-782.60907	800.59296	-1017.31567	-546.95654	874.43140	-1227.24487	-606.88867	441.50009	-839.02515	-761.76385	362.29257	-1143.40820	-618.60175	138.74814	-748.76837				
139	1.380	-669.30530	1328.60132	-809.13568	-646.00690	1462.70337	-1083.34485	-544.39215	1397.47168	-963.93280	-767.23206	1370.45679	-916.87457	-430.74741	1200.22095	-1007.32269	-850.72479	1180.68677	-1053.52466	-656.93622	1123.34753	-915.28156	-630.94922	1252.78186	-1141.29785	-349.86588	916.79987	-1064.21423	-918.68719	929.72565	-1098.43372	-313.51761	706.30780	-943.50427	-968.86884	682.00720	-992.76538	-533.96051	816.93665	-910.54407	-786.38318	800.69653	-1003.14191	-550.29065	871.98224	-1216.86353	-611.55811	440.84482	-827.34937	-765.25018	364.11252	-1128.67188	-621.19879	134.83871	-739.62134				
140	1.390	-670.10870	1329.14966	-798.91260	-647.10437	1461.34680	-1074.14661	-545.27460	1396.23499	-957.00067	-767.88660	1369.77246	-906.79175	-431.98792	1197.12720	-995.04651	-851.74713	1179.13354	-1043.46130	-658.68573	1123.10474	-905.00958	-632.00055	1252.24976	-1133.28552	-352.58365	914.66119	-1055.52881	-918.97211	929.57672	-1091.66711	-313.98712	703.99847	-936.35120	-967.97247	679.12323	-984.59222	-537.51746	815.11340	-898.76514	-789.80035	799.17346	-993.74988	-553.88348	868.63348	-1204.98743	-617.62549	439.54938	-816.07037	-766.56244	361.11996	-1126.20300	-625.03345	130.26636	-732.52094				
141	1.400	-669.68951	1329.07458	-788.95758	-648.21448	1459.99158	-1065.43677	-545.74921	1394.98047	-945.91571	-768.48883	1369.81592	-897.22870	-433.56226	1195.49695	-986.94751	-853.08728	1178.44666	-1033.06848	-660.00781	1121.87366	-893.40729	-633.31238	1249.44702	-1120.78723	-354.23801	912.84045	-1047.19690	-919.60919	927.68555	-1079.26404	-315.15753	701.07635	-926.92932	-967.68024	677.88983	-977.83441	-540.70618	813.11346	-886.42694	-792.68396	799.60101	-982.12933	-557.50818	866.66565	-1195.39612	-620.05566	439.72757	-801.56256	-769.39960	361.84680	-1114.28979	-627.33557	123.85855	-724.78662				
142	1.410	-671.06305	1330.35547	-778.91925	-649.18854	1458.84180	-1056.39001	-546.69159	1394.83386	-937.35321	-768.95099	1370.06653	-887.18152	-434.57919	1192.74146	-977.02905	-854.47552	1177.60706	-1022.32257	-661.74316	1121.15979	-883.07123	-635.06372	1249.03955	-1111.07397	-358.22064	909.32837	-1037.06458	-919.80017	927.04132	-1069.19873	-315.77011	698.91809	-919.49353	-966.59955	676.37402	-970.69025	-543.55768	811.95074	-874.86816	-795.59552	796.74573	-972.59717	-561.39270	863.51300	-1182.82080	-624.14056	436.30698	-792.00537	-771.17932	362.10178	-1104.89404	-628.79523	117.63348	-719.98572				
143	1.420	-671.53870	1331.42737	-768.49823	-649.97931	1458.07678	-1047.24927	-546.86548	1394.37158	-929.52179	-769.33966	1369.87317	-877.14685	-435.23331	1190.92236	-966.14880	-855.76544	1177.50562	-1011.55621	-662.90417	1120.80005	-871.91833	-635.22498	1247.91650	-1101.09607	-359.77594	907.27307	-1026.91602	-920.03851	926.23553	-1059.84387	-317.37860	696.54285	-911.84534	-966.65833	675.30811	-964.14984	-547.19818	810.21851	-863.86841	-798.11755	797.10620	-958.21362	-565.17297	861.48657	-1171.41589	-628.16174	434.36008	-777.59247	-773.06561	359.93262	-1097.78003	-630.30237	110.73554	-716.23077				
144	1.430	-671.53827	1332.98145	-758.54669	-650.81128	1457.27930	-1037.86218	-547.50891	1394.05896	-918.85999	-769.96912	1370.91736	-867.05365	-436.16736	1189.33386	-954.98364	-857.31201	1178.05054	-1000.41162	-664.48328	1121.25537	-859.18433	-636.22144	1246.16187	-1089.27295	-363.39041	905.28571	-1017.09125	-919.64825	926.54144	-1050.36023	-318.68054	694.16687	-903.32269	-966.29333	674.28137	-956.26941	-549.80719	808.98895	-849.83099	-801.06531	796.37000	-944.89154	-568.64447	859.53369	-1159.09229	-631.74054	432.76605	-763.63013				-631.39264	103.90011	-711.28845				
145	1.440	-671.72174	1334.13538	-748.50433	-651.52673	1457.06128	-1028.30640	-547.60901	1394.18054	-909.28778	-769.89069	1371.11792	-856.00775	-436.74579	1187.74231	-944.59015	-857.34552	1178.04834	-989.65118	-664.66583	1121.09155	-846.47388	-636.57025	1245.76428	-1078.90454	-365.92700	902.52521	-1007.85522				-320.28888	691.41553	-894.02374	-966.80939	673.82806	-948.54315	-551.44598	808.85553	-837.20972	-802.36511	797.35278	-934.06073	-572.02209	857.87634	-1146.76147	-634.67438	430.67426	-752.62927				-632.85651	100.89893	-704.64789				
146	1.450	-670.58984	1335.49329	-737.34448	-652.35168	1457.30481	-1018.86157	-547.81860	1394.89307	-900.46198	-769.75238	1372.37842	-845.13153	-437.95419	1187.00964	-935.44971	-858.92743	1178.86914	-978.03778	-665.60022	1122.64111	-835.80579	-637.55023	1244.95361	-1066.87146	-363.27417	905.20099	-988.59778	-919.56494	927.64178	-1029.63074	-321.03485	690.48163	-885.44397	-965.60492	673.24231	-941.96802	-555.22894	808.88257	-824.56390	-805.10620	797.42194	-920.78131	-574.85284	856.90485	-1134.51416	-637.99884	428.50562	-741.25647				-634.52484	100.16482	-697.87183				
147	1.460	-669.94391	1338.20508	-727.52692	-653.09839	1457.83252	-1008.94855	-548.62537	1396.22791	-888.06335	-769.96729	1374.94922	-835.04266	-438.50250	1186.32544	-923.19788	-859.50555	1180.55396	-967.07904	-666.94659	1124.29456	-823.46338	-638.28857	1247.52527	-1057.89844	-364.37027	904.25586	-977.93054	-919.10156	928.45264	-1019.04779	-321.90628	689.38043	-876.51263	-965.79199	674.17859	-935.16876	-557.33289	809.43622	-810.55310	-808.19946	799.83624	-904.88367				-640.66589	428.06729	-728.17603				-638.09296	97.33395	-689.06305				
148	1.470	-670.09412	1341.31714	-716.41113	-653.83038	1458.55786	-999.37128	-548.33844	1398.40601	-882.75836	-769.42224	1376.82373	-823.88605	-439.26785	1187.00830	-912.70343	-860.48358	1182.05115	-955.94098	-667.99158	1125.84668	-810.15247	-638.92090	1246.14917	-1044.05078	-373.55914	900.07983	-977.17267	-918.49396	930.27856	-1008.32312	-323.58185	688.71912	-867.34808	-965.99164	675.53210	-928.74530	-560.22986	810.24628	-798.43878	-809.58948	804.37592	-880.92859	-579.42041	857.13635	-1109.75073	-643.61053	427.78186	-719.92157				-640.58582	96.00205	-680.31299				
149	1.480	-667.66876	1343.93225	-704.14221	-654.50592	1459.20630	-989.20435	-548.52728	1400.11414	-870.89374	-769.49957	1379.62097	-812.71631	-440.25293	1187.42395	-902.61023	-861.97778	1185.16077	-944.56763	-668.33716	1128.01306	-799.69232	-639.91388	1247.01855	-1032.86194	-377.89862	900.66583	-966.88763	-917.31616	931.58392	-997.19556	-325.48297	688.93280	-857.47601	-965.97913	676.98969	-921.03467	-560.60913	813.68213	-782.13708	-812.71411	806.03125	-877.82288				-645.14496	429.92819	-707.89343				-643.83044	93.08633	-673.26807				
150	1.490	-667.17712	1347.38586	-693.81177	-655.13470	1460.32214	-979.87366	-549.04944	1401.94763	-860.35626	-769.18823	1382.00964	-801.82373	-440.84937	1188.21167	-892.07733	-862.69043	1187.02832	-932.23175	-669.17566	1130.60498	-787.83917	-640.84906	1248.54736	-1021.35498	-374.44528	904.56055	-948.38678	-916.73389	934.15533	-986.83716	-327.47528	689.24561	-848.61664	-965.67377	679.07861	-914.42578	-562.65350	815.93427	-769.69794	-813.98822	809.57697	-856.66187	-582.75305	856.45154	-1072.95447	-647.18091	430.52859	-698.34668				-645.13190	89.85413	-665.85803				
151	1.500	-665.86761	1350.20032	-682.75140	-655.85333	1460.94873	-969.84814	-548.92462	1403.55603	-851.15143	-769.63373	1384.63855	-790.94922	-442.55801	1190.69824	-881.04694	-863.48407	1189.58154	-920.29810	-670.36450	1133.69055	-776.46350	-641.94098	1251.19885	-1011.95068	-378.02905	906.43872	-937.54816	-916.51801	936.76624	-976.46454	-328.75604	691.26886	-839.03851	-965.31586	681.34180	-907.55469	-564.35095	818.31189	-757.76379	-817.13562	812.76996	-844.25226	-584.93921	857.60474	-1060.23718	-649.89545	434.75342	-684.24805	-707.90070	488.52658	-696.93768	-647.61279	84.63654	-660.81299				
152	1.510	-665.68298	1353.58740	-671.41187	-656.59698	1461.73975	-960.36792	-548.79205	1405.01648	-841.75183	-768.89777	1387.00024	-779.48077	-443.27246	1192.02246	-868.71234	-865.13208	1193.00952	-908.84637	-671.63831	1135.56299	-764.27484	-643.60315	1251.32593	-999.30774	-381.30969	909.02570	-929.40106	-916.23627	939.45148	-966.05902	-331.04520	693.11041	-830.17139	-965.07385	683.82111	-900.01996	-566.12378	821.55011	-746.55157	-817.77313	815.12701	-830.95508	-586.94922	858.53827	-1046.92542	-653.12183	437.33716	-669.06183	-800.14093	380.93652	-975.11078	-648.81580	80.56441	-656.28094				
